<svg xmlns="http://www.w3.org/2000/svg" xmlns:xlink="http://www.w3.org/1999/xlink" version="1.0" x="0" y="0" width="2400" height="2400.000249326645" viewBox="133.28000007629396 88.28000007629394 73.43999221801758 73.43999984741211" preserveAspectRatio="xMidYMid meet" color-interpolation-filters="sRGB"><g><defs><linearGradient id="92" x1="0%" y1="0%" x2="100%" y2="0%"><stop offset="0%" stop-color="#fa71cd"></stop> <stop offset="100%" stop-color="#9b59b6"></stop></linearGradient><linearGradient id="93" x1="0%" y1="0%" x2="100%" y2="0%"><stop offset="0%" stop-color="#f9d423"></stop> <stop offset="100%" stop-color="#f83600"></stop></linearGradient><linearGradient id="94" x1="0%" y1="0%" x2="100%" y2="0%"><stop offset="0%" stop-color="#0064d2"></stop> <stop offset="100%" stop-color="#1cb0f6"></stop></linearGradient><linearGradient id="95" x1="0%" y1="0%" x2="100%" y2="0%"><stop offset="0%" stop-color="#f00978"></stop> <stop offset="100%" stop-color="#3f51b1"></stop></linearGradient><linearGradient id="96" x1="0%" y1="0%" x2="100%" y2="0%"><stop offset="0%" stop-color="#7873f5"></stop> <stop offset="100%" stop-color="#ec77ab"></stop></linearGradient><linearGradient id="97" x1="0%" y1="0%" x2="100%" y2="0%"><stop offset="0%" stop-color="#f9d423"></stop> <stop offset="100%" stop-color="#e14fad"></stop></linearGradient><linearGradient id="98" x1="0%" y1="0%" x2="100%" y2="0%"><stop offset="0%" stop-color="#009efd"></stop> <stop offset="100%" stop-color="#2af598"></stop></linearGradient><linearGradient id="99" x1="0%" y1="0%" x2="100%" y2="0%"><stop offset="0%" stop-color="#ffcc00"></stop> <stop offset="100%" stop-color="#00b140"></stop></linearGradient><linearGradient id="100" x1="0%" y1="0%" x2="100%" y2="0%"><stop offset="0%" stop-color="#d51007"></stop> <stop offset="100%" stop-color="#ff8177"></stop></linearGradient><linearGradient id="102" x1="0%" y1="0%" x2="100%" y2="0%"><stop offset="0%" stop-color="#a2b6df"></stop> <stop offset="100%" stop-color="#0c3483"></stop></linearGradient><linearGradient id="103" x1="0%" y1="0%" x2="100%" y2="0%"><stop offset="0%" stop-color="#7ac5d8"></stop> <stop offset="100%" stop-color="#eea2a2"></stop></linearGradient><linearGradient id="104" x1="0%" y1="0%" x2="100%" y2="0%"><stop offset="0%" stop-color="#00ecbc"></stop> <stop offset="100%" stop-color="#007adf"></stop></linearGradient><linearGradient id="105" x1="0%" y1="0%" x2="100%" y2="0%"><stop offset="0%" stop-color="#b88746"></stop> <stop offset="100%" stop-color="#fdf5a6"></stop></linearGradient></defs><g class="imagesvg isNoFont" transform="translate(140,95)"><g mask="url(#dfbf99a5-9586-4bd7-936b-dc311c624145)"><rect fill="#999999" fill-opacity="0" stroke-width="2" x="0" y="0" width="60" height="60" class="image-rect"></rect> <svg x="0" y="0" width="60" height="60" filtersec="colorsf6569547495" class="image-svg-svg primary" style="overflow: visible;"><svg xmlns="http://www.w3.org/2000/svg" xmlns:xlink="http://www.w3.org/1999/xlink" version="1.2" baseProfile="tiny" x="0px" y="0px" viewBox="2.5 2.4999923706054688 95 95.00001525878906" xml:space="preserve"><g><path d="M96.7488403,63.9784012L78.4041748,53.1079178c-0.4818726-0.2852783-1.0803833-0.2852783-1.5621948,0   l-2.9768066,1.763916l-0.4713135-0.8948975c1.6540527-1.3543701,2.1878052-3.7339478,1.1542358-5.6972046l-3.0924683-5.8756714   c-0.5720825-1.086853-1.5327759-1.885376-2.7053833-2.2490234c-0.87146-0.2698364-1.7827148-0.276123-2.638916-0.0270386   l-0.9289551-1.7651978l3.9429321-2.335144c0.4658813-0.2758789,0.7516479-0.7770996,0.7516479-1.3182983V14.9027176   c0-0.5411987-0.2852783-1.0424805-0.7511597-1.3182983L50.7811279,2.7139969c-0.4818726-0.2853394-1.0803833-0.2853394-1.5621948,0   L30.8742065,13.5844193c-0.4658203,0.2758179-0.7511597,0.7770996-0.7511597,1.3182983v19.8066406   c0,0.5411987,0.2858276,1.0424194,0.7516479,1.3182983l3.9429321,2.335144l-0.928894,1.7650757   c-0.8567505-0.2497559-1.7681274-0.2438354-2.638916,0.0271606c-1.1726685,0.3636475-2.1333008,1.1621704-2.7059326,2.2490234   l-3.0914307,5.8756714c-1.0340576,1.9632568-0.5003052,4.3428345,1.1536865,5.6972046l-0.4712524,0.8948975l-2.9768066-1.763916   c-0.4818115-0.2852783-1.0803833-0.2852783-1.5621948,0L3.2511597,63.9784012C2.7853394,64.2542191,2.5,64.7555008,2.5,65.2966385   v19.8066406c0,0.5411987,0.2858276,1.0424805,0.751709,1.3182983l18.3446655,10.8644409   c0.2404175,0.1426392,0.5107422,0.2139893,0.7805786,0.2139893s0.5402222-0.0713501,0.7806396-0.2139893l18.3446655-10.8644409   c0.4658813-0.2758179,0.7516479-0.7770996,0.7516479-1.3182983v-2.9462891h2.5004272   C45.416626,84.4286575,47.517334,86.0933914,50,86.0933914c2.4827271,0,4.583374-1.6647339,5.2457275-3.9364014h2.5003662   v2.9462891c0,0.5411987,0.2858276,1.0424805,0.7516479,1.3182983l18.3447266,10.8644409   c0.2404175,0.1426392,0.5107422,0.2139893,0.7805786,0.2139893s0.5401611-0.0713501,0.7805786-0.2139893l18.3447266-10.8644409   C97.2142334,86.1457596,97.5,85.6444778,97.5,85.1032791V65.2966385C97.5,64.7555008,97.2147217,64.2542191,96.7488403,63.9784012z    M65.6004028,43.7542801l1.0739136-0.5651245c0.2234497-0.1172485,0.4668579-0.177063,0.7122192-0.177063   c0.1521606,0,0.3057861,0.0229492,0.4553833,0.0693359c0.3910522,0.1217041,0.7113037,0.3880005,0.9017944,0.7501221   l3.0924683,5.8756714c0.1905518,0.3621216,0.2289429,0.7770996,0.1077271,1.1676636   c-0.1217041,0.3910522-0.3880615,0.7112427-0.7501221,0.9022827l-1.0734253,0.5646362   c-0.3615723,0.1895142-0.776062,0.2284546-1.1676025,0.1077271c-0.3910522-0.1217041-0.7113037-0.3880615-0.9018555-0.7501831   l-3.0924072-5.8756714c-0.1905518-0.3620605-0.2289429-0.7770996-0.1077271-1.1676025   C64.9724731,44.2650223,65.2388306,43.9447708,65.6004028,43.7542801z M66.812439,33.8360062L63.75354,35.6475906   l-3.2247314-6.1275635c-0.3930664-0.7481689-1.3197632-1.0374756-2.069458-0.6419678   c-0.7486572,0.394043-1.036438,1.3208008-0.6419067,2.069458l3.2960815,6.2636719l-9.5812378,5.6744995V26.6403275   l15.2801514-9.0495605V33.8360062z M50,5.8134232l15.3388062,9.0889282L50,23.9865189l-15.3388062-9.0841675L50,5.8134232z    M33.187561,33.8360062V17.5907669l15.2802124,9.0495605v16.2453613l-9.5812378-5.6744995l3.2960815-6.2636719   c0.3945313-0.7486572,0.1067505-1.675415-0.6419678-2.069458c-0.7501221-0.3959961-1.675354-0.1066895-2.069397,0.6419678   L36.24646,35.6475906L33.187561,33.8360062z M28.1643677,49.707222l3.0914307-5.8756714   c0.19104-0.3621216,0.5112305-0.628418,0.9022827-0.7501221c0.390564-0.119751,0.8050537-0.0823364,1.1681519,0.1082153   l1.072876,0.5641479c0.7476807,0.3939819,1.0359497,1.3222656,0.6429443,2.0698853l-3.0924683,5.8756714   c-0.19104,0.3621216-0.5112305,0.628479-0.9022827,0.7501831c-0.3900757,0.1221924-0.8040161,0.083313-1.1681519-0.1082153   l-1.072876-0.5641479c-0.3621216-0.19104-0.628479-0.5112305-0.7501831-0.9022827   C27.9348755,50.4843216,27.9733276,50.0693436,28.1643677,49.707222z M20.8447266,93.2796097L5.5645142,84.2299271V67.9846878   l15.2802124,9.0495605V93.2796097z M22.3769531,74.3804398L7.038208,65.2962723l15.3387451-9.0889282l2.3280029,1.3794556   l-3.6821899,6.9915771c-0.3945313,0.7487183-0.1067505,1.675415,0.6419678,2.069458   c0.227417,0.1202393,0.4718018,0.177063,0.7122192,0.177063c0.5506592,0,1.0828857-0.2977295,1.3571777-0.8189697   l3.6107178-6.8549194l10.3709106,6.1452637L22.3769531,74.3804398z M39.1893921,79.0924759h-8.996521   c-0.8464355,0-1.5322266,0.685791-1.5322266,1.5322266s0.685791,1.5322876,1.5322266,1.5322876h8.996521v2.072937   l-15.2801514,9.0496826V77.0342484l15.2801514-9.0495605V79.0924759z M50,83.0288773   c-1.3227539,0-2.3986206-1.076416-2.3986206-2.3991699S48.6772461,78.2310867,50,78.2310867   c1.3228149,0,2.3986816,1.0758667,2.3986816,2.3986206S51.3228149,83.0288773,50,83.0288773z M58.4972534,63.9784012   c-0.4658813,0.2758179-0.7511597,0.7770996-0.7511597,1.3182373v13.7958374h-2.5033569   C54.5771484,76.8260574,52.4790649,75.1665726,50,75.1665726s-4.5771484,1.6594849-5.2426758,3.9259033h-2.503418V65.2966385   c0-0.5411377-0.2852783-1.0424194-0.7511597-1.3182373l-12.7279663-7.5421753l0.5445557-1.0338745   c0.4174805,0.1206055,0.8435669,0.1795044,1.2666016,0.1795044c1.6529541,0,3.2530518-0.8933105,4.0750122-2.4549561   l3.0929565-5.8761597c1.0322876-1.9625244,0.4992065-4.3407593-1.1533203-5.6955566l0.8571777-1.6288452l11.7616577,6.9657593   C49.4598389,47.0347366,49.7301636,47.1060867,50,47.1060867s0.5402222-0.0713501,0.7805786-0.2139893l11.7616577-6.9657593   l0.8568115,1.6281738c-0.6921997,0.5651245-1.2041016,1.3203735-1.4751587,2.1932373   c-0.3635864,1.1726685-0.2489014,2.4171143,0.3226929,3.503479l3.0924683,5.8756714   c0.8220215,1.5621338,2.4221191,2.4549561,4.0755615,2.4549561c0.4225464,0,0.8486328-0.05896,1.2661133-0.1795044   l0.5444946,1.0338745L58.4972534,63.9784012z M76.0908203,93.2796097l-15.2802124-9.0496826v-2.072937h8.996521   c0.8464355,0,1.5322876-0.6858521,1.5322876-1.5322876s-0.6858521-1.5322266-1.5322876-1.5322266h-8.996521V67.9846878   l15.2802124,9.0495605V93.2796097z M77.6230469,74.3804398l-15.3388062-9.0841675l10.3709717-6.1452637l3.6106567,6.8549194   c0.274353,0.5212402,0.8065186,0.8189697,1.3571777,0.8189697c0.2404175,0,0.4848022-0.0568237,0.7122803-0.177063   c0.7486572-0.394043,1.036438-1.3207397,0.6419067-2.069458l-3.6821899-6.9915771l2.3280029-1.3794556l15.3388062,9.0889282   L77.6230469,74.3804398z M94.4354858,84.2299271l-15.2801514,9.0496826V77.0342484l15.2801514-9.0495605V84.2299271z"></path></g></svg><rect v-gra="id" width="71.99999237060547" height="72" transform="translate(-6, -6)" style="pointer-events:none;" fill="url(#w5fiVdr6ZWoPKjDVU-GEA)"></rect></svg> <defs><filter id="colors4030632193"><feColorMatrix type="matrix" values="0 0 0 0 0.046875  0 0 0 0 0  0 0 0 0 0.1171875  0 0 0 1 0" class="icon-feColorMatrix "></feColorMatrix></filter> <filter id="colorsf6569547495"><feColorMatrix type="matrix" values="0 0 0 0 0.99609375  0 0 0 0 0.99609375  0 0 0 0 0.99609375  0 0 0 1 0" class="icon-fecolormatrix"></feColorMatrix></filter> <filter id="colorsb9436440759"><feColorMatrix type="matrix" values="0 0 0 0 0  0 0 0 0 0  0 0 0 0 0  0 0 0 1 0" class="icon-fecolormatrix"></feColorMatrix></filter></defs></g></g><defs v-gra="od"></defs><defs v-gra="id"><filter id="56e7fdfb-9560-4cbe-9cda-f20c567c14ac" filterUnits="userSpaceOnUse"><feColorMatrix type="matrix" values="0 0 0 0 0.99609375  0 0 0 0 0.99609375  0 0 0 0 0.99609375  0 0 0 1 0"></feColorMatrix></filter><linearGradient x1="0" y1="1" x2="0" y2="0" id="w5fiVdr6ZWoPKjDVU-GEA"><stop offset="0%" stop-color="#a7f28e"></stop><stop offset="100%" stop-color="#05befe"></stop></linearGradient><filter id="42443b3f1de60f6b6fd3b6a9844b4764" filterUnits="objectBoundingBox"><feColorMatrix type="matrix" values="0 0 0 0 0.99609375  0 0 0 0 0.99609375  0 0 0 0 0.99609375  0 0 0 1 0"></feColorMatrix></filter></defs><mask v-gra="im" id="dfbf99a5-9586-4bd7-936b-dc311c624145"><svg filter="url(#56e7fdfb-9560-4cbe-9cda-f20c567c14ac)" x="0" y="0" width="60" height="60" filtersec="colorsf6569547495" class="image-svg-svg primary" style="overflow: visible;"><svg xmlns="http://www.w3.org/2000/svg" xmlns:xlink="http://www.w3.org/1999/xlink" version="1.2" baseProfile="tiny" x="0px" y="0px" viewBox="2.5 2.4999923706054688 95 95.00001525878906" xml:space="preserve"><g><path d="M96.7488403,63.9784012L78.4041748,53.1079178c-0.4818726-0.2852783-1.0803833-0.2852783-1.5621948,0   l-2.9768066,1.763916l-0.4713135-0.8948975c1.6540527-1.3543701,2.1878052-3.7339478,1.1542358-5.6972046l-3.0924683-5.8756714   c-0.5720825-1.086853-1.5327759-1.885376-2.7053833-2.2490234c-0.87146-0.2698364-1.7827148-0.276123-2.638916-0.0270386   l-0.9289551-1.7651978l3.9429321-2.335144c0.4658813-0.2758789,0.7516479-0.7770996,0.7516479-1.3182983V14.9027176   c0-0.5411987-0.2852783-1.0424805-0.7511597-1.3182983L50.7811279,2.7139969c-0.4818726-0.2853394-1.0803833-0.2853394-1.5621948,0   L30.8742065,13.5844193c-0.4658203,0.2758179-0.7511597,0.7770996-0.7511597,1.3182983v19.8066406   c0,0.5411987,0.2858276,1.0424194,0.7516479,1.3182983l3.9429321,2.335144l-0.928894,1.7650757   c-0.8567505-0.2497559-1.7681274-0.2438354-2.638916,0.0271606c-1.1726685,0.3636475-2.1333008,1.1621704-2.7059326,2.2490234   l-3.0914307,5.8756714c-1.0340576,1.9632568-0.5003052,4.3428345,1.1536865,5.6972046l-0.4712524,0.8948975l-2.9768066-1.763916   c-0.4818115-0.2852783-1.0803833-0.2852783-1.5621948,0L3.2511597,63.9784012C2.7853394,64.2542191,2.5,64.7555008,2.5,65.2966385   v19.8066406c0,0.5411987,0.2858276,1.0424805,0.751709,1.3182983l18.3446655,10.8644409   c0.2404175,0.1426392,0.5107422,0.2139893,0.7805786,0.2139893s0.5402222-0.0713501,0.7806396-0.2139893l18.3446655-10.8644409   c0.4658813-0.2758179,0.7516479-0.7770996,0.7516479-1.3182983v-2.9462891h2.5004272   C45.416626,84.4286575,47.517334,86.0933914,50,86.0933914c2.4827271,0,4.583374-1.6647339,5.2457275-3.9364014h2.5003662   v2.9462891c0,0.5411987,0.2858276,1.0424805,0.7516479,1.3182983l18.3447266,10.8644409   c0.2404175,0.1426392,0.5107422,0.2139893,0.7805786,0.2139893s0.5401611-0.0713501,0.7805786-0.2139893l18.3447266-10.8644409   C97.2142334,86.1457596,97.5,85.6444778,97.5,85.1032791V65.2966385C97.5,64.7555008,97.2147217,64.2542191,96.7488403,63.9784012z    M65.6004028,43.7542801l1.0739136-0.5651245c0.2234497-0.1172485,0.4668579-0.177063,0.7122192-0.177063   c0.1521606,0,0.3057861,0.0229492,0.4553833,0.0693359c0.3910522,0.1217041,0.7113037,0.3880005,0.9017944,0.7501221   l3.0924683,5.8756714c0.1905518,0.3621216,0.2289429,0.7770996,0.1077271,1.1676636   c-0.1217041,0.3910522-0.3880615,0.7112427-0.7501221,0.9022827l-1.0734253,0.5646362   c-0.3615723,0.1895142-0.776062,0.2284546-1.1676025,0.1077271c-0.3910522-0.1217041-0.7113037-0.3880615-0.9018555-0.7501831   l-3.0924072-5.8756714c-0.1905518-0.3620605-0.2289429-0.7770996-0.1077271-1.1676025   C64.9724731,44.2650223,65.2388306,43.9447708,65.6004028,43.7542801z M66.812439,33.8360062L63.75354,35.6475906   l-3.2247314-6.1275635c-0.3930664-0.7481689-1.3197632-1.0374756-2.069458-0.6419678   c-0.7486572,0.394043-1.036438,1.3208008-0.6419067,2.069458l3.2960815,6.2636719l-9.5812378,5.6744995V26.6403275   l15.2801514-9.0495605V33.8360062z M50,5.8134232l15.3388062,9.0889282L50,23.9865189l-15.3388062-9.0841675L50,5.8134232z    M33.187561,33.8360062V17.5907669l15.2802124,9.0495605v16.2453613l-9.5812378-5.6744995l3.2960815-6.2636719   c0.3945313-0.7486572,0.1067505-1.675415-0.6419678-2.069458c-0.7501221-0.3959961-1.675354-0.1066895-2.069397,0.6419678   L36.24646,35.6475906L33.187561,33.8360062z M28.1643677,49.707222l3.0914307-5.8756714   c0.19104-0.3621216,0.5112305-0.628418,0.9022827-0.7501221c0.390564-0.119751,0.8050537-0.0823364,1.1681519,0.1082153   l1.072876,0.5641479c0.7476807,0.3939819,1.0359497,1.3222656,0.6429443,2.0698853l-3.0924683,5.8756714   c-0.19104,0.3621216-0.5112305,0.628479-0.9022827,0.7501831c-0.3900757,0.1221924-0.8040161,0.083313-1.1681519-0.1082153   l-1.072876-0.5641479c-0.3621216-0.19104-0.628479-0.5112305-0.7501831-0.9022827   C27.9348755,50.4843216,27.9733276,50.0693436,28.1643677,49.707222z M20.8447266,93.2796097L5.5645142,84.2299271V67.9846878   l15.2802124,9.0495605V93.2796097z M22.3769531,74.3804398L7.038208,65.2962723l15.3387451-9.0889282l2.3280029,1.3794556   l-3.6821899,6.9915771c-0.3945313,0.7487183-0.1067505,1.675415,0.6419678,2.069458   c0.227417,0.1202393,0.4718018,0.177063,0.7122192,0.177063c0.5506592,0,1.0828857-0.2977295,1.3571777-0.8189697   l3.6107178-6.8549194l10.3709106,6.1452637L22.3769531,74.3804398z M39.1893921,79.0924759h-8.996521   c-0.8464355,0-1.5322266,0.685791-1.5322266,1.5322266s0.685791,1.5322876,1.5322266,1.5322876h8.996521v2.072937   l-15.2801514,9.0496826V77.0342484l15.2801514-9.0495605V79.0924759z M50,83.0288773   c-1.3227539,0-2.3986206-1.076416-2.3986206-2.3991699S48.6772461,78.2310867,50,78.2310867   c1.3228149,0,2.3986816,1.0758667,2.3986816,2.3986206S51.3228149,83.0288773,50,83.0288773z M58.4972534,63.9784012   c-0.4658813,0.2758179-0.7511597,0.7770996-0.7511597,1.3182373v13.7958374h-2.5033569   C54.5771484,76.8260574,52.4790649,75.1665726,50,75.1665726s-4.5771484,1.6594849-5.2426758,3.9259033h-2.503418V65.2966385   c0-0.5411377-0.2852783-1.0424194-0.7511597-1.3182373l-12.7279663-7.5421753l0.5445557-1.0338745   c0.4174805,0.1206055,0.8435669,0.1795044,1.2666016,0.1795044c1.6529541,0,3.2530518-0.8933105,4.0750122-2.4549561   l3.0929565-5.8761597c1.0322876-1.9625244,0.4992065-4.3407593-1.1533203-5.6955566l0.8571777-1.6288452l11.7616577,6.9657593   C49.4598389,47.0347366,49.7301636,47.1060867,50,47.1060867s0.5402222-0.0713501,0.7805786-0.2139893l11.7616577-6.9657593   l0.8568115,1.6281738c-0.6921997,0.5651245-1.2041016,1.3203735-1.4751587,2.1932373   c-0.3635864,1.1726685-0.2489014,2.4171143,0.3226929,3.503479l3.0924683,5.8756714   c0.8220215,1.5621338,2.4221191,2.4549561,4.0755615,2.4549561c0.4225464,0,0.8486328-0.05896,1.2661133-0.1795044   l0.5444946,1.0338745L58.4972534,63.9784012z M76.0908203,93.2796097l-15.2802124-9.0496826v-2.072937h8.996521   c0.8464355,0,1.5322876-0.6858521,1.5322876-1.5322876s-0.6858521-1.5322266-1.5322876-1.5322266h-8.996521V67.9846878   l15.2802124,9.0495605V93.2796097z M77.6230469,74.3804398l-15.3388062-9.0841675l10.3709717-6.1452637l3.6106567,6.8549194   c0.274353,0.5212402,0.8065186,0.8189697,1.3571777,0.8189697c0.2404175,0,0.4848022-0.0568237,0.7122803-0.177063   c0.7486572-0.394043,1.036438-1.3207397,0.6419067-2.069458l-3.6821899-6.9915771l2.3280029-1.3794556l15.3388062,9.0889282   L77.6230469,74.3804398z M94.4354858,84.2299271l-15.2801514,9.0496826V77.0342484l15.2801514-9.0495605V84.2299271z"></path></g></svg></svg></mask></g></svg>